<?xml version="1.0" encoding="utf-8"?>
<!-- Generator: Adobe Illustrator 19.0.0, SVG Export Plug-In . SVG Version: 6.00 Build 0)  -->
<svg version="1.1" id="Layer_1" xmlns="http://www.w3.org/2000/svg" xmlns:xlink="http://www.w3.org/1999/xlink" x="0px" y="0px"
	 viewBox="0 0 28 28" style="enable-background:new 0 0 28 28;" xml:space="preserve">
<g>
	<g>
		<defs>
			<path id="SVGID_1_" d="M27.3,13.2L13.6,26.8h6.2c0.3,0,0.6,0.3,0.6,0.6c0,0.3-0.3,0.6-0.6,0.6h-8.4h0c0,0,0,0,0,0H8.2
				c-0.3,0-0.6-0.3-0.6-0.6c0-0.3,0.3-0.6,0.6-0.6h1l-7.3-7.3l-1.1-1.1C0.3,17.9,0,17.3,0,16.6c0-0.7,0.3-1.3,0.7-1.8L14.8,0.7
				C15.3,0.3,15.9,0,16.6,0c0.7,0,1.3,0.3,1.8,0.7l8.9,8.9C28.2,10.6,28.2,12.2,27.3,13.2L27.3,13.2z M26.4,10.4l-4.9-4.9L8.1,19
				c-0.1,0.1-0.3,0.2-0.4,0.2S7.3,19.2,7.2,19c-0.2-0.2-0.2-0.6,0-0.8L20.7,4.7l-3.2-3.2c-0.3-0.3-0.6-0.4-1-0.4
				c-0.4,0-0.7,0.1-1,0.4L1.6,15.6c-0.3,0.3-0.4,0.6-0.4,1c0,0.4,0.1,0.7,0.4,1l0.7,0.7L15.7,4.7c0.2-0.2,0.6-0.2,0.8,0
				c0.2,0.2,0.2,0.6,0,0.8L3.1,19.1l7.4,7.4c0.3,0.3,0.6,0.4,1,0.4h0c0.4,0,0.7-0.1,1-0.4l14.1-14.1C27,11.8,27,11,26.4,10.4
				L26.4,10.4z M14.4,17.7l-4.6,4.6c-0.1,0.1-0.3,0.2-0.4,0.2c-0.1,0-0.3-0.1-0.4-0.2c-0.2-0.2-0.2-0.6,0-0.8l4.6-4.6
				c0.2-0.2,0.6-0.2,0.8,0C14.6,17.1,14.6,17.4,14.4,17.7L14.4,17.7z M13.3,22l-1.9,1.9c-0.1,0.1-0.3,0.2-0.4,0.2
				c-0.1,0-0.3-0.1-0.4-0.2c-0.2-0.2-0.2-0.6,0-0.8l1.9-1.9c0.2-0.2,0.6-0.2,0.8,0C13.5,21.4,13.5,21.8,13.3,22L13.3,22z M15,20.3
				l-0.2,0.2c-0.1,0.1-0.3,0.2-0.4,0.2s-0.3-0.1-0.4-0.2c-0.2-0.2-0.2-0.6,0-0.8l0.2-0.2c0.2-0.2,0.6-0.2,0.8,0S15.3,20.1,15,20.3
				L15,20.3z M23.9,11.4l-2.5,2.5c-0.1,0.1-0.3,0.2-0.4,0.2c-0.1,0-0.3-0.1-0.4-0.2L19,12.3c-0.1-0.1-0.2-0.3-0.2-0.4
				c0-0.2,0.1-0.3,0.2-0.4L21.4,9c0.1-0.1,0.3-0.2,0.4-0.2c0.2,0,0.3,0.1,0.4,0.2l1.7,1.7C24.1,10.8,24.1,11.2,23.9,11.4L23.9,11.4z
				 M21.8,10.2l-1.7,1.7l0.8,0.8l1.7-1.7L21.8,10.2L21.8,10.2z M18.2,4l-0.2,0.2c-0.1,0.1-0.3,0.2-0.4,0.2s-0.3-0.1-0.4-0.2
				c-0.2-0.2-0.2-0.6,0-0.8l0.2-0.2c0.2-0.2,0.6-0.2,0.8,0C18.4,3.4,18.4,3.7,18.2,4L18.2,4z M6.7,20.4l-0.2,0.2
				c-0.1,0.1-0.3,0.2-0.4,0.2c-0.1,0-0.3-0.1-0.4-0.2c-0.2-0.2-0.2-0.6,0-0.8l0.2-0.2c0.2-0.2,0.6-0.2,0.8,0
				C6.9,19.8,6.9,20.2,6.7,20.4L6.7,20.4z"/>
		</defs>
		<use xlink:href="#SVGID_1_"  style="overflow:visible;fill:#FFFFFF;"/>
		<clipPath id="SVGID_2_">
			<use xlink:href="#SVGID_1_"  style="overflow:visible;"/>
		</clipPath>
	</g>
</g>
</svg>
