<?xml version="1.0" encoding="utf-8"?>
<!-- Generator: Adobe Illustrator 19.0.0, SVG Export Plug-In . SVG Version: 6.00 Build 0)  -->
<svg version="1.1" id="Layer_1" xmlns="http://www.w3.org/2000/svg" xmlns:xlink="http://www.w3.org/1999/xlink" x="0px" y="0px"
	 viewBox="-294 385 23 23" style="enable-background:new -294 385 23 23;" xml:space="preserve">
<style type="text/css">
	.st0{fill:#FFFFFF;}
</style>
<g>
	<g>
		<path id="SVGID_1_" class="st0" d="M-274.4,399.9c-1.3-1.3-2.7-2.2-4.4-2.7c1.7-1.2,2.9-3.2,2.9-5.5c0-3.7-3-6.6-6.6-6.6
			s-6.6,2.9-6.6,6.5c0,2.3,1.1,4.3,2.9,5.5c-1.6,0.6-3.1,1.5-4.4,2.7c-2.2,2.2-3.4,5.1-3.4,8.2h1.8c0-5.3,4.4-9.7,9.7-9.7
			c5.4,0,9.7,4.4,9.7,9.7h1.8C-271,404.9-272.2,402-274.4,399.9L-274.4,399.9z M-282.5,396.5c-2.7,0-4.9-2.2-4.9-4.9
			c0-2.7,2.2-4.9,4.9-4.9s4.9,2.2,4.9,4.9C-277.6,394.3-279.8,396.5-282.5,396.5L-282.5,396.5z"/>
	</g>
</g>
</svg>
