<?xml version="1.0" encoding="utf-8"?>
<!-- Generator: Adobe Illustrator 19.0.0, SVG Export Plug-In . SVG Version: 6.00 Build 0)  -->
<svg version="1.1" id="Layer_1" xmlns="http://www.w3.org/2000/svg" xmlns:xlink="http://www.w3.org/1999/xlink" x="0px" y="0px"
	 viewBox="0 0 40 38" style="enable-background:new 0 0 40 38;" xml:space="preserve">
<g>
	<g>
		<defs>
			<path id="SVGID_1_" d="M39.5,11.3l-2.6,1V24c0.9,0,1.7,0.3,2.4,0.9c0,0,0,0,0,0c0.5,0.6,0.8,1.4,0.7,2.2c-0.1,0.8-0.5,1.5-1.2,2
				c0,0,0,0,0,0c-0.1,0-6.2,4.2-10,6.7c-2.1,1.4-4.5,2.1-7.1,2.1c-1.6,0-3.1-0.3-4.5-0.8L11.4,35c-0.9-0.4-1.9-0.7-2.9-0.9l-0.2,0
				c-0.1,0.1-0.2,0.1-0.4,0.1H5.7v0.8c0,0.4-0.3,0.8-0.8,0.8H0.8c-0.4,0-0.8-0.4-0.8-0.8V24.5c0-0.4,0.3-0.8,0.8-0.8H8
				c0.3,0,0.5,0.2,0.7,0.4c0.6-0.5,1.3-1,2.2-1.3V12.3l-2.6-1c-0.2-0.1-0.4-0.3-0.4-0.5c-0.1-0.2-0.1-0.4,0-0.6L11,4.5l0-0.1
				c0.1-0.2,0.2-0.3,0.4-0.3L23.7,0C23.8,0,24,0,24.1,0l12.2,4.1c0,0,0.2,0.1,0.2,0.1c0,0,0,0,0,0c0.1,0.1,0.2,0.1,0.3,0.2l3.1,5.7
				c0.1,0.2,0.1,0.4,0,0.6C39.9,11,39.7,11.2,39.5,11.3L39.5,11.3z M4.1,25.3H1.6v8.9h2.6V25.3L4.1,25.3z M7.2,25.3H5.7v7.3h1.6
				V25.3L7.2,25.3z M8.8,26.1v6.4l0.2,0c1,0.2,2.1,0.6,3,0.9l5.7,2.2c1.3,0.5,2.6,0.7,4,0.7c2.2,0,4.4-0.6,6.2-1.9
				c3.7-2.5,9.7-6.5,10-6.7c0.3-0.2,0.5-0.5,0.5-0.9c0-0.4-0.1-0.7-0.3-1c-0.5-0.4-1.1-0.6-1.7-0.4L31.2,28c0,0.1,0,0.1,0,0.2
				c0,1.8-1.4,3.2-3.2,3.2H16.3c-0.4,0-0.8-0.4-0.8-0.8c0-0.4,0.3-0.8,0.8-0.8h11.8c0.9,0,1.6-0.7,1.6-1.6s-0.7-1.6-1.6-1.6h-6.8
				c-1.8,0-3.2-1-3.9-1.6c-0.1-0.1-0.3-0.2-0.3-0.2C13.3,22.7,10.5,24.3,8.8,26.1L8.8,26.1z M23.9,17.4c0.4,0,0.8,0.4,0.8,0.8v6.9
				h3.4c1.1,0,2.1,0.6,2.7,1.5l4.6-2.1V12.9L27.6,16c-0.1,0-0.2,0.1-0.3,0.1c-0.3,0-0.5-0.1-0.7-0.4l-2.8-4.6l-2.8,4.6
				c-0.1,0.2-0.4,0.4-0.7,0.4c-0.1,0-0.2,0-0.3-0.1l-7.7-3.1v9.4c1.5-0.2,3.3,0,5.3,1.2c0.1,0.1,0.3,0.2,0.5,0.3
				c0.7,0.5,1.8,1.3,3,1.3h1.8v-6.9C23.1,17.7,23.5,17.4,23.9,17.4L23.9,17.4z M9.7,10.2l10.4,4.2l2.6-4.3L12,5.9L9.7,10.2L9.7,10.2
				z M23.9,1.6L14,4.9l9.9,3.8l9.9-3.8L23.9,1.6L23.9,1.6z M35.8,5.9L25.1,10l2.6,4.3l10.4-4.2L35.8,5.9L35.8,5.9z M13.9,30.8
				c0,0,0,0.1,0,0.1c0,0,0,0.1-0.1,0.1c0,0-0.1,0.1-0.1,0.1s-0.1,0.1-0.1,0.1c0,0-0.1,0.1-0.1,0.1c0,0-0.1,0-0.1,0
				c-0.1,0-0.1,0-0.2,0c-0.1,0-0.1,0-0.2,0c0,0-0.1,0-0.1,0c0,0-0.1,0-0.1-0.1c0,0-0.1-0.1-0.1-0.1s-0.1-0.1-0.1-0.1
				c0,0-0.1-0.1-0.1-0.1c0,0,0-0.1,0-0.1c0-0.1,0-0.1,0-0.2c0-0.1,0-0.1,0-0.2c0,0,0-0.1,0-0.1c0,0,0-0.1,0.1-0.1
				c0,0,0.1-0.1,0.1-0.1c0,0,0.1-0.1,0.1-0.1c0,0,0.1-0.1,0.1-0.1c0,0,0.1,0,0.1,0c0.1,0,0.2,0,0.3,0c0,0,0.1,0,0.1,0s0.1,0,0.1,0.1
				c0,0,0.1,0.1,0.1,0.1c0,0,0.1,0.1,0.1,0.1c0,0,0.1,0.1,0.1,0.1c0,0,0,0.1,0,0.1c0,0.1,0,0.1,0,0.2C13.9,30.7,13.9,30.8,13.9,30.8
				L13.9,30.8z"/>
		</defs>
		<use xlink:href="#SVGID_1_"  style="overflow:visible;fill:#FFFFFF;"/>
		<clipPath id="SVGID_2_">
			<use xlink:href="#SVGID_1_"  style="overflow:visible;"/>
		</clipPath>
	</g>
</g>
</svg>
