<?xml version="1.0" encoding="utf-8"?>
<!-- Generator: Adobe Illustrator 19.0.0, SVG Export Plug-In . SVG Version: 6.00 Build 0)  -->
<svg version="1.1" id="Layer_1" xmlns="http://www.w3.org/2000/svg" xmlns:xlink="http://www.w3.org/1999/xlink" x="0px" y="0px"
	 viewBox="0 0 70 70" style="enable-background:new 0 0 70 70;" xml:space="preserve">
<style type="text/css">
	.st0{fill:#FFFFFF;}
</style>
<path class="st0" d="M56.9,36.8h-5l-2.2,4.7h0.9c0.3,0,0.7,0.2,0.8,0.5c0.2,0.3,0.2,0.7,0,1l-5.8,9.7c-0.2,0.3-0.5,0.5-0.8,0.5
	c-0.1,0-0.2,0-0.3,0c-0.4-0.1-0.7-0.5-0.7-1l0.4-7.1h-2.4c-0.3,0-0.6-0.1-0.8-0.4C41,44.3,40.9,44,41,43.7l2.2-6.9h-9.9L36.9,48
	c0.1,0.3,0,0.6-0.1,0.9c-0.2,0.3-0.5,0.4-0.8,0.4h-4l3.7,11.3c0.1,0.4,0,0.9-0.5,1.2c-0.1,0.1-0.3,0.1-0.5,0.1
	c-0.3,0-0.6-0.1-0.8-0.4L21.8,46.5c-0.2-0.3-0.3-0.7-0.1-1c0.2-0.3,0.5-0.6,0.9-0.6h1.8L18,36.8h-1.8c-5.3,0-9.6-4.3-9.6-9.6
	c0-5.3,4.3-9.6,9.6-9.6c0,0,0.1,0,0.1,0c0.9-2.6,2.6-4.9,4.9-6.5c2.5-1.9,5.5-2.9,8.6-2.9c2.5,0,5,0.7,7.1,1.9
	c1.8,1.1,3.4,2.5,4.6,4.3c1.6-0.7,3.3-1.1,5-1.1c3.1,0,6,1.2,8.2,3.4c2,2,3.2,4.5,3.5,7.3c3,0.6,5.2,3.2,5.2,6.3
	C63.4,33.9,60.5,36.8,56.9,36.8L56.9,36.8z M45.4,43c0.3,0,0.5,0.1,0.7,0.3c0.2,0.2,0.3,0.5,0.3,0.7l-0.3,4.2l2.9-4.8h-0.8
	c-0.3,0-0.6-0.2-0.8-0.4c-0.2-0.3-0.2-0.6-0.1-0.9l2.5-5.2h-4.5l-2,6.2H45.4L45.4,43z M27.1,45.3c0.2,0.3,0.3,0.7,0.1,1
	c-0.2,0.3-0.5,0.5-0.9,0.5h-1.7l7.6,9.3l-2.5-7.6c-0.1-0.3,0-0.6,0.1-0.9c0.2-0.3,0.5-0.4,0.8-0.4h4l-3.4-10.6H20.4L27.1,45.3
	L27.1,45.3z M57.2,25.8c-0.5,0-0.9-0.4-0.9-0.9c0-2.6-1.1-5-2.9-6.8c-1.8-1.8-4.3-2.8-6.9-2.8c-1.7,0-3.4,0.4-4.8,1.3
	c-0.5,0.3-1,0.1-1.3-0.3c-2.3-3.7-6.2-6-10.6-6c-2.7,0-5.3,0.9-7.4,2.5c-2.1,1.6-3.6,3.8-4.4,6.3c-0.1,0.4-0.6,0.7-1,0.7
	c-0.2,0-0.5,0-0.7,0c-4.2,0-7.7,3.4-7.7,7.7s3.4,7.6,7.7,7.6h40.7c2.5,0,4.5-2,4.5-4.5C61.5,27.9,59.6,25.9,57.2,25.8L57.2,25.8z
	 M45.9,27.5c0,0.5-0.5,0.9-1,0.9c-0.5,0-0.9-0.5-0.9-1v0c0-1.8-1.5-3.3-3.3-3.3c-0.7,0-1.4,0.2-2,0.7c-0.4,0.3-1,0.2-1.3-0.2
	c-1.2-1.5-3-2.3-4.9-2.3c-3.4,0-6.2,2.8-6.2,6.2c0,1,0.2,2,0.7,2.9c0.3,0.5,0.1,1.1-0.4,1.3c-0.1,0.1-0.3,0.1-0.5,0.1
	c-0.3,0-0.7-0.2-0.9-0.5c-0.6-1.2-0.9-2.5-0.9-3.8c0-4.5,3.7-8.1,8.1-8.1c2.2,0,4.3,0.9,5.8,2.4c0.7-0.4,1.5-0.6,2.4-0.6
	c2.9,0,5.2,2.3,5.2,5.2C45.9,27.4,45.9,27.5,45.9,27.5L45.9,27.5z"/>
</svg>
